<svg width="223" height="32" viewBox="0 0 223 32" fill="none" xmlns="http://www.w3.org/2000/svg">
<path d="M165.352 15.4103C164.877 15.2145 164.53 14.9955 164.312 14.7537C164.015 14.4235 163.867 14.0433 163.867 13.6132C163.867 12.9067 164.295 12.3287 165.152 11.8795C165.82 11.5339 166.704 11.361 167.804 11.361C169.26 11.361 170.336 11.5761 171.032 12.0062C171.727 12.4363 172.075 12.9777 172.075 13.6305C172.075 14.0107 171.937 14.3659 171.659 14.6961C171.451 14.9419 171.124 15.18 170.679 15.4104C171.268 15.6292 171.708 15.9192 171.997 16.2801C172.287 16.6411 172.432 17.0405 172.432 17.4783C172.432 17.9007 172.307 18.2952 172.057 18.662C171.807 19.0287 171.5 19.3119 171.136 19.5115C170.772 19.7112 170.318 19.8581 169.776 19.9522C169.234 20.0463 168.656 20.0932 168.042 20.0932C166.888 20.0932 166.006 19.9877 165.397 19.7765C164.788 19.5653 164.325 19.2542 164.008 18.8434C163.691 18.4325 163.532 17.9736 163.532 17.4667C163.532 16.9714 163.681 16.5518 163.978 16.2081C164.275 15.8645 164.733 15.5986 165.352 15.4103ZM166.548 17.386C166.548 17.7585 166.694 18.0628 166.987 18.299C167.279 18.5352 167.613 18.6532 167.99 18.6532C168.351 18.6532 168.675 18.5332 168.963 18.2932C169.25 18.0532 169.394 17.7489 169.394 17.3802C169.394 17.0078 169.249 16.7024 168.959 16.4644C168.669 16.2263 168.334 16.1072 167.952 16.1072C167.576 16.1072 167.248 16.2224 166.968 16.4528C166.688 16.6833 166.548 16.9943 166.548 17.386ZM166.712 13.7515C166.712 14.0434 166.829 14.2785 167.065 14.4571C167.3 14.6357 167.613 14.7249 168.004 14.7249C168.351 14.7249 168.636 14.6367 168.859 14.4599C169.082 14.2834 169.193 14.0549 169.193 13.7745C169.193 13.4827 169.077 13.2456 168.844 13.0631C168.611 12.8808 168.314 12.7895 167.952 12.7895C167.586 12.7895 167.287 12.8788 167.057 13.0574C166.827 13.2359 166.712 13.4673 166.712 13.7515Z" fill="black"/>
<path d="M56.7949 14.586C56.7949 14.1873 56.8035 13.8927 56.8209 13.702C56.8555 13.494 56.9335 13.26 57.0549 13C57.2975 12.5493 57.9735 12.324 59.0829 12.324C59.9149 12.324 60.5042 12.4713 60.8509 12.766C61.1455 13.0087 61.3015 13.3813 61.3189 13.884C61.3362 14.0573 61.3449 14.3087 61.3449 14.638V23.738C61.3449 24.1367 61.3275 24.44 61.2929 24.648C61.2755 24.8387 61.1975 25.064 61.0589 25.324C60.8335 25.7747 60.1662 26 59.0569 26C57.9649 26 57.2975 25.766 57.0549 25.298C56.9335 25.038 56.8555 24.8127 56.8209 24.622C56.8035 24.4313 56.7949 24.128 56.7949 23.712V14.586ZM61.0589 9.776C60.9375 10.0187 60.7122 10.192 60.3829 10.296C60.0535 10.4 59.6115 10.452 59.0569 10.452C58.5195 10.452 58.0862 10.4 57.7569 10.296C57.4275 10.192 57.1935 10.01 57.0549 9.75C56.9335 9.49 56.8555 9.26467 56.8209 9.074C56.8035 8.866 56.7949 8.56267 56.7949 8.164C56.7949 7.76533 56.8035 7.47067 56.8209 7.28C56.8555 7.072 56.9335 6.84667 57.0549 6.604C57.2975 6.136 57.9735 5.902 59.0829 5.902C60.1749 5.902 60.8335 6.136 61.0589 6.604C61.1975 6.864 61.2755 7.098 61.2929 7.306C61.3275 7.49667 61.3449 7.79133 61.3449 8.19C61.3449 8.58867 61.3275 8.892 61.2929 9.1C61.2755 9.29067 61.1975 9.516 61.0589 9.776ZM71.0398 12.298C72.7732 12.298 74.2118 12.9653 75.3558 14.3C76.5172 15.6173 77.0978 17.2293 77.0978 19.136V23.712C77.0978 24.1107 77.0805 24.414 77.0458 24.622C77.0285 24.8127 76.9592 25.0293 76.8378 25.272C76.5952 25.74 75.9192 25.974 74.8098 25.974C73.5792 25.974 72.8685 25.6533 72.6778 25.012C72.5738 24.7173 72.5218 24.2753 72.5218 23.686V19.11C72.5218 18.3993 72.3138 17.8447 71.8978 17.446C71.4992 17.0473 70.9532 16.848 70.2598 16.848C69.5838 16.848 69.0292 17.056 68.5958 17.472C68.1798 17.888 67.9718 18.434 67.9718 19.11V23.712C67.9718 24.1107 67.9545 24.414 67.9198 24.622C67.9025 24.8127 67.8245 25.0293 67.6858 25.272C67.4605 25.74 66.7932 25.974 65.6838 25.974C64.5918 25.974 63.9245 25.74 63.6818 25.272C63.5605 25.012 63.4825 24.7867 63.4478 24.596C63.4305 24.388 63.4218 24.0847 63.4218 23.686V14.482C63.4218 14.1007 63.4305 13.8147 63.4478 13.624C63.4825 13.416 63.5692 13.1907 63.7078 12.948C63.9505 12.5147 64.6178 12.298 65.7098 12.298C66.7672 12.298 67.4172 12.4973 67.6598 12.896C67.8332 13.1907 67.9198 13.546 67.9198 13.962C67.9892 13.8407 68.1452 13.6673 68.3878 13.442C68.6305 13.2167 68.8645 13.0347 69.0898 12.896C69.6792 12.4973 70.3292 12.298 71.0398 12.298ZM88.3674 6.604C88.5061 6.344 88.7401 6.162 89.0694 6.058C89.3987 5.954 89.8321 5.902 90.3694 5.902C90.9241 5.902 91.3661 5.954 91.6954 6.058C92.0247 6.162 92.2501 6.344 92.3714 6.604C92.5101 6.864 92.5881 7.098 92.6054 7.306C92.6401 7.49667 92.6574 7.79133 92.6574 8.19V23.712C92.6574 24.1107 92.6401 24.414 92.6054 24.622C92.5881 24.8127 92.5101 25.0293 92.3714 25.272C92.1114 25.74 91.3747 25.974 90.1614 25.974C88.9654 25.974 88.2981 25.5493 88.1594 24.7C87.4314 25.532 86.4174 25.948 85.1174 25.948C83.5574 25.948 82.1361 25.272 80.8534 23.92C79.5707 22.5507 78.9294 20.9647 78.9294 19.162C78.9294 17.342 79.5707 15.7473 80.8534 14.378C82.1534 13.0087 83.5747 12.324 85.1174 12.324C86.4001 12.324 87.3967 12.7573 88.1074 13.624V8.164C88.1074 7.76533 88.1161 7.47067 88.1334 7.28C88.1681 7.072 88.2461 6.84667 88.3674 6.604ZM84.1554 20.722C84.6061 21.19 85.1521 21.424 85.7934 21.424C86.4347 21.424 86.9634 21.19 87.3794 20.722C87.8127 20.254 88.0294 19.7427 88.0294 19.188C88.0294 18.616 87.8214 18.0873 87.4054 17.602C87.0067 17.1167 86.4607 16.874 85.7674 16.874C85.0741 16.874 84.5194 17.1167 84.1034 17.602C83.6874 18.07 83.4794 18.59 83.4794 19.162C83.4794 19.734 83.7047 20.254 84.1554 20.722ZM123.765 12.454C124.094 12.558 124.363 12.74 124.571 13C124.796 13.2427 124.909 13.6413 124.909 14.196C124.909 14.7507 124.744 15.3573 124.415 16.016C124.086 16.6747 123.609 17.004 122.985 17.004C122.673 17.004 122.37 16.9347 122.075 16.796C121.798 16.6573 121.425 16.588 120.957 16.588C120.489 16.588 120.047 16.7527 119.631 17.082C119.232 17.4113 119.033 17.81 119.033 18.278V23.738C119.033 24.1367 119.016 24.44 118.981 24.648C118.964 24.8387 118.886 25.064 118.747 25.324C118.487 25.7747 117.811 26 116.719 26C115.887 26 115.289 25.8527 114.925 25.558C114.648 25.3153 114.492 24.9427 114.457 24.44C114.457 24.2667 114.457 24.0153 114.457 23.686V14.56C114.457 14.1613 114.466 13.8667 114.483 13.676C114.518 13.468 114.596 13.2427 114.717 13C114.96 12.532 115.636 12.298 116.745 12.298C117.785 12.298 118.435 12.4973 118.695 12.896C118.886 13.1733 118.981 13.4593 118.981 13.754C119.068 13.6327 119.189 13.4853 119.345 13.312C119.518 13.1387 119.874 12.9047 120.411 12.61C120.948 12.3153 121.416 12.168 121.815 12.168C122.231 12.168 122.578 12.194 122.855 12.246C123.132 12.2807 123.436 12.35 123.765 12.454ZM153.17 7.67C153.309 7.93 153.387 8.164 153.404 8.372C153.439 8.58 153.456 8.88333 153.456 9.282V23.712C153.456 24.908 153.127 25.61 152.468 25.818C152.139 25.922 151.723 25.974 151.22 25.974C150.717 25.974 150.319 25.9307 150.024 25.844C149.729 25.7573 149.504 25.6533 149.348 25.532C149.192 25.4107 149.071 25.2373 148.984 25.012C148.897 24.7173 148.854 24.2667 148.854 23.66V14.95C148.421 15.4873 147.788 16.3453 146.956 17.524C146.124 18.6853 145.595 19.4133 145.37 19.708C145.145 20.0027 144.989 20.2107 144.902 20.332C144.815 20.436 144.599 20.592 144.252 20.8C143.923 20.9907 143.559 21.086 143.16 21.086C142.779 21.086 142.423 20.9993 142.094 20.826C141.782 20.6353 141.557 20.4533 141.418 20.28L141.21 19.994C140.863 19.5607 140.179 18.642 139.156 17.238C138.133 15.8167 137.579 15.054 137.492 14.95V23.712C137.492 24.1107 137.475 24.414 137.44 24.622C137.423 24.8127 137.345 25.0293 137.206 25.272C136.946 25.74 136.27 25.974 135.178 25.974C134.121 25.974 133.462 25.74 133.202 25.272C133.063 25.0293 132.977 24.804 132.942 24.596C132.925 24.388 132.916 24.076 132.916 23.66V9.23C132.916 8.83133 132.925 8.53667 132.942 8.346C132.977 8.138 133.063 7.904 133.202 7.644C133.462 7.19333 134.138 6.968 135.23 6.968C135.698 6.968 136.097 7.02867 136.426 7.15C136.773 7.254 136.998 7.36667 137.102 7.488L137.258 7.644L143.16 15.392C146.107 11.492 148.074 8.918 149.062 7.67C149.357 7.202 150.05 6.968 151.142 6.968C152.251 6.968 152.927 7.202 153.17 7.67ZM166.145 21.71C166.44 22.0047 166.587 22.6113 166.587 23.53V23.634C166.587 24.05 166.57 24.362 166.535 24.57C166.518 24.7607 166.431 24.9947 166.275 25.272C166.015 25.7747 165.357 26.026 164.299 26.026C163.259 26.026 162.566 25.8613 162.219 25.532C161.89 25.2027 161.725 24.5787 161.725 23.66V23.556C161.725 23.1573 161.734 22.854 161.751 22.646C161.786 22.438 161.873 22.204 162.011 21.944C162.271 21.424 162.921 21.164 163.961 21.164C165.019 21.164 165.747 21.346 166.145 21.71Z" fill="black"/>
<path d="M48.8803 7.08263H34.12C32.9133 7.08263 31.9316 7.85184 31.9316 8.79758V24.2022C31.9316 25.1476 32.9127 25.9169 34.12 25.9169H48.8803C50.35 25.9169 51.0684 25.1476 51.0684 24.2022L51.0686 8.79801C51.0679 7.85237 50.35 7.08263 48.8803 7.08263ZM46.3825 11.6843H39.7098V14.6434H45.4532V17.1035H39.7099V22.5145H35.4908V9.23291H46.3825V11.6843ZM51.0678 4.00001L31.9316 4C29.7605 4 28 5.38054 28 7.08305L28 25.917C28 27.6197 29.7606 29 31.9317 29L51.0684 28.9426C53.2395 28.9426 55 27.5624 55 25.8596V7.08263C54.9998 5.38055 53.2394 4.00001 51.0678 4.00001ZM52.6183 24.2022C52.6183 25.8174 50.9415 27.1328 48.8803 27.1328H34.12C32.059 27.1328 30.3816 25.8179 30.3816 24.2022V8.79801C30.3816 7.18258 32.0585 5.86729 34.12 5.86729H48.8803C50.9409 5.86729 52.6183 7.18215 52.6183 8.79801V24.2022Z" fill="black"/>
<ellipse cx="104.2" cy="10" rx="8.2" ry="6" fill="#C4C4C4"/>
<path d="M104.904 13.9939C104.504 14.4868 103.752 14.4868 103.352 13.9939L99.4838 9.23036C98.9531 8.57679 99.4182 7.60001 100.26 7.60001H104.128L107.996 7.60001C108.838 7.60001 109.303 8.57679 108.772 9.23036L104.904 13.9939Z" fill="#1E1B1B"/>
<path d="M168.135 3.69531C161.231 3.69531 155.635 9.26688 155.635 16.1398C155.635 23.0127 161.231 28.5842 168.135 28.5842C175.038 28.5842 180.635 23.0127 180.635 16.1398C180.635 9.26688 175.038 3.69531 168.135 3.69531ZM168.135 22.3343C164.698 22.3343 161.913 19.5609 161.913 16.1398C161.913 12.7186 164.698 9.94519 168.135 9.94519C171.571 9.94519 174.357 12.7186 174.357 16.1398C174.357 19.5609 171.571 22.3343 168.135 22.3343Z" fill="#020202"/>
</svg>
